<mxfile host="65bd71144e">
    <diagram id="uNfuLkz-IKZv4kyaxe_W" name="Page-1">
        <mxGraphModel dx="595" dy="486" grid="0" gridSize="10" guides="1" tooltips="1" connect="1" arrows="1" fold="1" page="0" pageScale="1" pageWidth="827" pageHeight="1169" math="0" shadow="0">
            <root>
                <mxCell id="0"/>
                <mxCell id="1" parent="0"/>
                <mxCell id="11" style="edgeStyle=none;html=1;exitX=1;exitY=0.5;exitDx=0;exitDy=0;targetPerimeterSpacing=0;strokeWidth=3;strokeColor=#FF66FF;endArrow=classicThin;endFill=1;" parent="1" source="2" edge="1">
                    <mxGeometry relative="1" as="geometry">
                        <mxPoint x="300" y="385" as="targetPoint"/>
                    </mxGeometry>
                </mxCell>
                <mxCell id="2" value="" style="whiteSpace=wrap;html=1;strokeColor=#FF33FF;strokeWidth=3;" parent="1" vertex="1">
                    <mxGeometry x="90" y="360" width="100" height="50" as="geometry"/>
                </mxCell>
                <mxCell id="12" style="edgeStyle=none;html=1;targetPerimeterSpacing=0;strokeWidth=3;strokeColor=#9933FF;" parent="1" source="5" edge="1">
                    <mxGeometry relative="1" as="geometry">
                        <mxPoint x="300" y="485" as="targetPoint"/>
                        <Array as="points">
                            <mxPoint x="264" y="485"/>
                        </Array>
                    </mxGeometry>
                </mxCell>
                <mxCell id="5" value="" style="whiteSpace=wrap;html=1;strokeWidth=3;strokeColor=#9933FF;" parent="1" vertex="1">
                    <mxGeometry x="90" y="460" width="100" height="50" as="geometry"/>
                </mxCell>
                <mxCell id="6" value="" style="whiteSpace=wrap;html=1;strokeWidth=3;strokeColor=#33FF33;" parent="1" vertex="1">
                    <mxGeometry x="90" y="640" width="100" height="50" as="geometry"/>
                </mxCell>
                <mxCell id="13" style="edgeStyle=none;html=1;targetPerimeterSpacing=0;strokeWidth=3;strokeColor=#3333FF;" parent="1" source="7" edge="1">
                    <mxGeometry relative="1" as="geometry">
                        <mxPoint x="301" y="575" as="targetPoint"/>
                        <Array as="points">
                            <mxPoint x="253" y="575"/>
                        </Array>
                    </mxGeometry>
                </mxCell>
                <mxCell id="7" value="" style="whiteSpace=wrap;html=1;strokeColor=#3333FF;strokeWidth=3;" parent="1" vertex="1">
                    <mxGeometry x="90" y="550" width="100" height="50" as="geometry"/>
                </mxCell>
                <mxCell id="15" value="" style="whiteSpace=wrap;html=1;strokeColor=#00FF00;strokeWidth=3;" parent="1" vertex="1">
                    <mxGeometry x="380" y="160" width="470" height="210" as="geometry"/>
                </mxCell>
                <mxCell id="16" value="" style="whiteSpace=wrap;html=1;strokeColor=#00FF00;strokeWidth=3;" parent="1" vertex="1">
                    <mxGeometry x="380" y="440" width="470" height="210" as="geometry"/>
                </mxCell>
                <mxCell id="23" style="edgeStyle=none;html=1;entryX=0;entryY=0.5;entryDx=0;entryDy=0;targetPerimeterSpacing=0;strokeColor=#FFFFFF;strokeWidth=1;" parent="1" source="17" target="19" edge="1">
                    <mxGeometry relative="1" as="geometry"/>
                </mxCell>
                <mxCell id="17" value="CheckLastEventStatus" style="whiteSpace=wrap;html=1;strokeColor=#3333FF;strokeWidth=3;" parent="1" vertex="1">
                    <mxGeometry x="414" y="520" width="150" height="42.5" as="geometry"/>
                </mxCell>
                <mxCell id="19" value="LoadLastEventRepo" style="whiteSpace=wrap;html=1;strokeColor=#9933FF;strokeWidth=3;fontStyle=1" parent="1" vertex="1">
                    <mxGeometry x="650" y="520" width="150" height="42.5" as="geometry"/>
                </mxCell>
                <mxCell id="21" style="edgeStyle=none;html=1;targetPerimeterSpacing=0;strokeColor=#FFFFFF;strokeWidth=1;" parent="1" source="20" target="19" edge="1">
                    <mxGeometry relative="1" as="geometry"/>
                </mxCell>
                <mxCell id="27" style="edgeStyle=none;html=1;exitX=0.5;exitY=0;exitDx=0;exitDy=0;entryX=0.5;entryY=1;entryDx=0;entryDy=0;targetPerimeterSpacing=0;strokeColor=#9933FF;strokeWidth=1;" parent="1" source="20" target="24" edge="1">
                    <mxGeometry relative="1" as="geometry"/>
                </mxCell>
                <mxCell id="20" value="PgLoadLastEventRepo" style="whiteSpace=wrap;html=1;strokeColor=#3333FF;strokeWidth=3;fontStyle=1" parent="1" vertex="1">
                    <mxGeometry x="520" y="240" width="170" height="50" as="geometry"/>
                </mxCell>
                <mxCell id="24" value="TypeORM" style="whiteSpace=wrap;html=1;strokeColor=#00FF00;strokeWidth=3;" parent="1" vertex="1">
                    <mxGeometry x="520" y="30" width="172.5" height="60" as="geometry"/>
                </mxCell>
                <mxCell id="28" value="&lt;font style=&quot;font-size: 14px&quot;&gt;Model&lt;/font&gt;" style="text;html=1;align=center;verticalAlign=middle;resizable=0;points=[];autosize=1;strokeColor=none;fillColor=none;" parent="1" vertex="1">
                    <mxGeometry x="15" y="370" width="50" height="20" as="geometry"/>
                </mxCell>
                <mxCell id="29" value="&lt;p style=&quot;line-height: 1.2&quot;&gt;&lt;font style=&quot;font-size: 14px&quot;&gt;Text&lt;/font&gt;&lt;/p&gt;" style="text;html=1;align=center;verticalAlign=middle;resizable=0;points=[];autosize=1;strokeColor=none;fillColor=none;" parent="1" vertex="1">
                    <mxGeometry x="110" y="295" width="40" height="50" as="geometry"/>
                </mxCell>
                <mxCell id="30" value="Class" style="text;html=1;align=center;verticalAlign=middle;resizable=0;points=[];autosize=1;strokeColor=none;fillColor=none;fontSize=14;" parent="1" vertex="1">
                    <mxGeometry x="15" y="475" width="50" height="20" as="geometry"/>
                </mxCell>
                <mxCell id="31" value="Interface" style="text;html=1;align=center;verticalAlign=middle;resizable=0;points=[];autosize=1;strokeColor=none;fillColor=none;fontSize=14;" parent="1" vertex="1">
                    <mxGeometry x="5" y="565" width="70" height="20" as="geometry"/>
                </mxCell>
                <mxCell id="32" value="" style="whiteSpace=wrap;html=1;strokeWidth=3;strokeColor=#CC0000;" parent="1" vertex="1">
                    <mxGeometry x="90" y="730" width="100" height="50" as="geometry"/>
                </mxCell>
                <mxCell id="33" value="Layer&lt;br&gt;" style="text;html=1;align=center;verticalAlign=middle;resizable=0;points=[];autosize=1;strokeColor=none;fillColor=none;fontSize=14;" parent="1" vertex="1">
                    <mxGeometry x="15" y="655" width="50" height="20" as="geometry"/>
                </mxCell>
                <mxCell id="34" value="External" style="text;html=1;align=center;verticalAlign=middle;resizable=0;points=[];autosize=1;strokeColor=none;fillColor=none;fontSize=14;" parent="1" vertex="1">
                    <mxGeometry x="5" y="740" width="70" height="20" as="geometry"/>
                </mxCell>
                <mxCell id="42" style="edgeStyle=none;html=1;strokeWidth=3;dashed=1;dashPattern=1 1;" edge="1" parent="1">
                    <mxGeometry relative="1" as="geometry">
                        <mxPoint x="304" y="516" as="targetPoint"/>
                        <mxPoint x="196" y="516" as="sourcePoint"/>
                    </mxGeometry>
                </mxCell>
            </root>
        </mxGraphModel>
    </diagram>
</mxfile>